<svg width="18" height="18" viewBox="0 0 18 18" fill="none" xmlns="http://www.w3.org/2000/svg">
<path d="M12.66 2.16001C12.5729 2.0727 12.4695 2.00343 12.3556 1.95617C12.2417 1.90891 12.1196 1.88458 11.9962 1.88458C11.8729 1.88458 11.7508 1.90891 11.6369 1.95617C11.523 2.00343 11.4196 2.0727 11.3325 2.16001L5.025 8.46751C4.95547 8.53689 4.90031 8.61931 4.86267 8.71004C4.82504 8.80077 4.80566 8.89803 4.80566 8.99626C4.80566 9.09448 4.82504 9.19175 4.86267 9.28248C4.90031 9.37321 4.95547 9.45562 5.025 9.52501L11.3325 15.8325C11.7 16.2 12.2925 16.2 12.66 15.8325C13.0275 15.465 13.0275 14.8725 12.66 14.505L7.155 9.00001L12.6675 3.48751C13.0275 3.12001 13.0275 2.52751 12.66 2.16001Z" fill="#2C3E50"/>
</svg>
