<svg width="25" height="25" viewBox="0 0 25 25" fill="none" xmlns="http://www.w3.org/2000/svg">
<path d="M15.6979 2.08337H9.30209C3.46876 2.08337 2.08334 3.46879 2.08334 9.30212V15.698C2.08334 21.5313 3.46876 22.9167 9.30209 22.9167H15.6979C21.5313 22.9167 22.9167 21.5313 22.9167 15.698V9.30212C22.9167 3.46879 21.5313 2.08337 15.6979 2.08337ZM18.9063 16.948H17.3854C16.8125 16.948 16.6354 16.4792 15.625 15.448C14.7083 14.5834 14.3125 14.4584 14.0938 14.4584C13.7917 14.4584 13.6979 14.5417 13.6979 14.9792V16.3438C13.6979 16.7084 13.5833 16.9375 12.6146 16.9375C11.0104 16.9375 9.22918 15.9584 7.97918 14.1563C6.09376 11.5105 5.58334 9.51046 5.58334 9.11462C5.58334 8.89587 5.65626 8.68754 6.09376 8.68754H7.62501C8.01043 8.68754 8.15626 8.85421 8.30209 9.27087C9.05209 11.4584 10.3021 13.3334 10.8125 13.3334C11.0104 13.3334 11.0938 13.2396 11.0938 12.7605V10.5209C11.0417 9.50004 10.4896 9.40629 10.4896 9.04171C10.4896 8.85421 10.6354 8.68754 10.875 8.68754H13.2604C13.5833 8.68754 13.6979 8.85421 13.6979 9.25004V12.2605C13.6979 12.5834 13.8333 12.698 13.9375 12.698C14.125 12.698 14.2917 12.5834 14.6354 12.2292C15.7292 11.0105 16.5104 9.12504 16.5104 9.12504C16.6146 8.90629 16.7813 8.69796 17.1875 8.69796H18.6771C19.1354 8.69796 19.2396 8.93754 19.1354 9.26046C18.9479 10.1459 17.0938 12.7605 17.1146 12.7605C16.9479 13.0209 16.8854 13.1355 17.1146 13.4375C17.2708 13.6563 17.8021 14.1146 18.1563 14.5209C18.8021 15.2605 19.3021 15.875 19.4375 16.3021C19.5521 16.7292 19.3438 16.948 18.9063 16.948Z" fill="white"/>
</svg>
