<svg width="25" height="25" viewBox="0 0 25 25" fill="none" xmlns="http://www.w3.org/2000/svg">
<path d="M10.4167 15.625L15.8229 12.5L10.4167 9.37504V15.625ZM22.4583 7.46879C22.5938 7.95837 22.6875 8.61462 22.75 9.44796C22.8229 10.2813 22.8542 11 22.8542 11.625L22.9167 12.5C22.9167 14.7813 22.75 16.4584 22.4583 17.5313C22.1979 18.4688 21.5938 19.073 20.6563 19.3334C20.1667 19.4688 19.2708 19.5625 17.8958 19.625C16.5417 19.698 15.3021 19.7292 14.1563 19.7292L12.5 19.7917C8.13543 19.7917 5.41668 19.625 4.34376 19.3334C3.40626 19.073 2.80209 18.4688 2.54168 17.5313C2.40626 17.0417 2.31251 16.3855 2.25001 15.5521C2.17709 14.7188 2.14584 14 2.14584 13.375L2.08334 12.5C2.08334 10.2188 2.25001 8.54171 2.54168 7.46879C2.80209 6.53129 3.40626 5.92712 4.34376 5.66671C4.83334 5.53129 5.72918 5.43754 7.10418 5.37504C8.45834 5.30212 9.69793 5.27087 10.8438 5.27087L12.5 5.20837C16.8646 5.20837 19.5833 5.37504 20.6563 5.66671C21.5938 5.92712 22.1979 6.53129 22.4583 7.46879Z" fill="white"/>
</svg>
